<svg width="110" height="96" viewBox="0 0 110 96" fill="none" xmlns="http://www.w3.org/2000/svg">
<path fill-rule="evenodd" clip-rule="evenodd" d="M52.0632 0.0765268C64.4703 -1.04982 73.5064 10.4999 82.9551 18.7421C93.6471 28.0689 107.281 35.9625 109.42 50.1095C111.774 65.682 107.019 84.0387 94.1584 92.8528C82.0289 101.166 66.658 90.5041 52.0632 89.419C39.4738 88.483 25.8101 94.7112 15.7119 87.0204C4.78273 78.6967 -1.83242 63.7869 0.44893 50.1095C2.56081 37.4482 17.0941 32.7581 26.2418 23.8907C34.9849 15.4155 40.0236 1.16951 52.0632 0.0765268Z" fill="black"/>
<path d="M63.4974 28C63.6002 28 63.7029 28 63.8115 28C64.0636 31.1139 62.875 33.4406 61.4305 35.1255C60.0132 36.7988 58.0723 38.4216 54.9332 38.1754C54.7238 35.1061 55.9143 32.952 57.3569 31.2709C58.6947 29.7043 61.1474 28.3102 63.4974 28Z" fill="white"/>
<path d="M73 60.411C73 60.442 73 60.4692 73 60.4983C72.1178 63.1701 70.8594 65.4599 69.3238 67.585C67.922 69.5142 66.2041 72.1104 63.1368 72.1104C60.4863 72.1104 58.7257 70.4061 56.0093 70.3595C53.1359 70.313 51.5557 71.7846 48.9284 72.155C48.6279 72.155 48.3274 72.155 48.0327 72.155C46.1034 71.8758 44.5465 70.3479 43.4122 68.9713C40.0676 64.9035 37.483 59.649 37.0022 52.9249C37.0022 52.2656 37.0022 51.6084 37.0022 50.9491C37.2058 46.1367 39.5441 42.224 42.6522 40.3278C44.2925 39.3195 46.5474 38.4606 49.0583 38.8445C50.1344 39.0113 51.2338 39.3796 52.1974 39.7442C53.1107 40.0951 54.2527 40.7175 55.3346 40.6845C56.0675 40.6632 56.7965 40.2812 57.5353 40.0117C59.6991 39.2304 61.8202 38.3346 64.6162 38.7553C67.9763 39.2633 70.3611 40.7563 71.8347 43.0597C68.9923 44.8687 66.7451 47.5948 67.129 52.2501C67.4702 56.4789 69.9288 58.9529 73 60.411Z" fill="white"/>
</svg>
