<svg width="110" height="96" viewBox="0 0 110 96" fill="none" xmlns="http://www.w3.org/2000/svg">
<path fill-rule="evenodd" clip-rule="evenodd" d="M57.9368 0.0765268C45.5297 -1.04982 36.4936 10.4999 27.0449 18.7421C16.3529 28.0689 2.71884 35.9625 0.580215 50.1095C-1.77388 65.682 2.98092 84.0387 15.8416 92.8528C27.9711 101.166 43.342 90.5041 57.9368 89.419C70.5262 88.483 84.1899 94.7112 94.2881 87.0204C105.217 78.6967 111.832 63.7869 109.551 50.1095C107.439 37.4482 92.9059 32.7581 83.7582 23.8907C75.0151 15.4155 69.9764 1.16951 57.9368 0.0765268Z" fill="#FFFC00"/>
<path d="M55.277 73C55.1523 73 55.0333 72.9954 54.9428 72.991C54.871 72.9973 54.7969 73 54.7226 73C52.1028 73 50.3511 71.7407 48.8052 70.6288C47.6973 69.833 46.6523 69.0817 45.4282 68.8747C44.827 68.7733 44.2289 68.7219 43.651 68.7219C42.6098 68.7219 41.787 68.8861 41.1862 69.0055C40.8166 69.0788 40.4978 69.1418 40.2514 69.1418C39.9934 69.1418 39.6799 69.0836 39.5492 68.63C39.4456 68.2722 39.3714 67.9255 39.2997 67.5917C39.1203 66.7574 38.9903 66.2482 38.6831 66.1999C35.3972 65.6844 33.4557 64.9251 33.069 64.0055C33.0285 63.9089 33.0059 63.8116 33.0008 63.7155C32.9858 63.4413 33.1761 63.2009 33.4419 63.1562C36.0513 62.7193 38.3715 61.3169 40.3384 58.9868C41.8621 57.1829 42.6103 55.4593 42.6906 55.269C42.6941 55.2604 42.6982 55.2514 42.7024 55.2432C43.0816 54.4611 43.157 53.7852 42.9273 53.2349C42.5039 52.2198 41.1017 51.7674 40.174 51.4681C39.9433 51.3939 39.7251 51.3236 39.5512 51.2535C38.7288 50.9232 37.3763 50.2254 37.5565 49.2622C37.6878 48.5598 38.6014 48.0707 39.3399 48.0707C39.5449 48.0707 39.7266 48.1073 39.8795 48.1803C40.7139 48.5778 41.4646 48.7792 42.1102 48.7792C42.9131 48.7792 43.3009 48.4684 43.3946 48.3801C43.3715 47.9446 43.3432 47.4842 43.3159 47.0488C43.3159 47.0483 43.3153 47.0431 43.3153 47.0431C43.1269 43.9949 42.8918 40.2016 43.8461 38.0262C46.7024 31.5148 52.7598 31.0084 54.5477 31.0084C54.5954 31.0084 55.327 31.0011 55.327 31.0011C55.36 31.0005 55.3959 31 55.433 31C57.2258 31 63.2958 31.5069 66.1539 38.0223C67.1082 40.1991 66.8729 43.9956 66.6838 47.047L66.675 47.193C66.6491 47.6073 66.6251 47.9995 66.6049 48.3796C66.6932 48.4622 67.048 48.7472 67.77 48.776C68.3855 48.752 69.0927 48.5515 69.8715 48.1808C70.1123 48.0658 70.3789 48.042 70.5598 48.042C70.8334 48.042 71.1118 48.0961 71.3438 48.1945L71.3562 48.1994C72.0171 48.4379 72.4499 48.9146 72.4592 49.4153C72.4675 49.8821 72.1264 50.5799 70.4482 51.2537C70.2763 51.3229 70.057 51.3937 69.8254 51.4684C68.8969 51.768 67.4958 52.2201 67.0724 53.2347C66.8424 53.785 66.9181 54.4606 67.2973 55.2425C67.3015 55.251 67.3051 55.2597 67.3092 55.2687C67.426 55.547 70.2523 62.0993 76.558 63.1556C76.8237 63.2006 77.0143 63.4412 76.9992 63.7149C76.9935 63.8132 76.9702 63.9115 76.9293 64.0075C76.5453 64.922 74.604 65.6803 71.3172 66.1965C71.0087 66.2449 70.8787 66.7519 70.701 67.5817C70.6274 67.9245 70.5526 68.2604 70.4504 68.6135C70.3548 68.9456 70.1421 69.1079 69.8004 69.1079H69.7489C69.5265 69.1079 69.2113 69.0668 68.8139 68.9877C68.1191 68.8502 67.3399 68.7223 66.3491 68.7223C65.7713 68.7223 65.1734 68.7738 64.5715 68.8751C63.3486 69.0821 62.3038 69.8322 61.1978 70.6271C59.6489 71.7406 57.8966 73 55.277 73Z" fill="white"/>
<path d="M55.4423 31.0961C57.1655 31.0961 63.0993 31.567 65.8957 37.9448C66.8165 40.045 66.5804 43.8493 66.3911 46.9054C66.3616 47.3903 66.3322 47.8604 66.3084 48.3093L66.2984 48.5022L66.425 48.6459C66.4761 48.7036 66.9548 49.2125 68.0193 49.2544L68.0365 49.2553L68.0544 49.255C68.7582 49.2277 69.5509 49.0053 70.4119 48.595C70.5387 48.5346 70.7075 48.5051 70.8861 48.5051C71.0896 48.5051 71.3059 48.544 71.4842 48.6204L71.5111 48.6314C71.9626 48.7923 72.2817 49.0957 72.2866 49.3703C72.2892 49.5255 72.1751 50.0847 70.5749 50.7279C70.4184 50.7907 70.2126 50.8575 69.9739 50.934C68.9325 51.2705 67.3591 51.7781 66.8296 53.0475C66.5314 53.7626 66.6131 54.6064 67.0721 55.5553C67.2609 56.0036 70.2336 62.8155 76.9226 63.9368C76.9213 63.9691 76.9132 64.0044 76.8953 64.046C76.7819 64.3176 76.0613 65.2562 71.5771 65.9601C70.8754 66.0695 70.7035 66.8697 70.5042 67.7999C70.4322 68.1329 70.359 68.4691 70.2583 68.8163C70.2276 68.9212 70.2219 68.9271 70.1114 68.9271C70.0961 68.9271 70.0782 68.9271 70.0587 68.9271C69.8598 68.9271 69.558 68.8852 69.2081 68.8153C68.5709 68.6891 67.7004 68.5342 66.5876 68.5342C65.9665 68.5342 65.3267 68.5891 64.6847 68.6982C63.3125 68.9303 62.1966 69.7332 61.0147 70.5832C59.4275 71.7241 57.7871 72.9048 55.2841 72.9048C55.1748 72.9048 55.0681 72.901 54.9612 72.8955L54.933 72.8943L54.9048 72.8965C54.8434 72.902 54.7815 72.9048 54.7183 72.9048C52.2157 72.9048 50.5745 71.7245 48.9881 70.5832C47.806 69.7332 46.6894 68.9303 45.3174 68.6982C44.6761 68.5895 44.0357 68.5342 43.4149 68.5342C42.3023 68.5342 41.4308 68.7074 40.7949 68.8339C40.445 68.9035 40.1421 68.9631 39.9439 68.9631C39.7815 68.9631 39.7784 68.9534 39.7441 68.8341C39.6435 68.4866 39.5699 68.1425 39.4983 67.8099C39.2985 66.8788 39.1264 66.0742 38.4251 65.9647C33.9412 65.2602 33.2205 64.3201 33.1067 64.0491C33.089 64.0064 33.081 63.9701 33.0792 63.9378C39.7682 62.8175 42.7402 56.0053 42.9296 55.5553C43.3894 54.6071 43.471 53.7634 43.1719 53.0475C42.6423 51.7789 41.0692 51.2705 40.0285 50.9346C39.7893 50.8576 39.5833 50.7907 39.4267 50.7279C38.0754 50.1847 37.6597 49.6375 37.7214 49.3059C37.7931 48.9235 38.4447 48.5347 39.0133 48.5347C39.1411 48.5347 39.2532 48.5557 39.336 48.5951C40.2595 49.0355 41.1026 49.2587 41.8421 49.2587C43.0045 49.2587 43.5219 48.7085 43.5774 48.6457L43.7034 48.5023L43.6933 48.3103C43.6698 47.8617 43.6409 47.3918 43.6103 46.9078C43.4216 43.851 43.1856 40.0492 44.106 37.949C46.892 31.5945 52.7969 31.1047 54.54 31.1047C54.5829 31.1047 55.3407 31.0968 55.3407 31.0968C55.3717 31.0966 55.4062 31.0961 55.4423 31.0961ZM55.4423 30H55.4403C55.4006 30 55.3633 30 55.3277 30.0005C55.0445 30.0034 54.5788 30.008 54.537 30.0085C53.5158 30.0085 51.4727 30.1552 49.278 31.1407C48.0232 31.7038 46.8945 32.4652 45.9234 33.4037C44.7656 34.522 43.8224 35.9008 43.1205 37.5024C42.0925 39.8474 42.3366 43.7973 42.5325 46.9714L42.5333 46.9764C42.5542 47.3164 42.5763 47.6713 42.5964 48.0172C42.4456 48.0877 42.2011 48.162 41.8408 48.162C41.2609 48.162 40.5714 47.9734 39.7919 47.6018C39.5625 47.4932 39.3007 47.4382 39.0119 47.4382C38.5478 47.4382 38.0585 47.5772 37.6342 47.8311C37.1002 48.15 36.7552 48.6008 36.6615 49.1006C36.5998 49.4312 36.6027 50.0846 37.3162 50.7473C37.7087 51.1121 38.2852 51.4485 39.0293 51.7477C39.2245 51.8259 39.4563 51.9006 39.7018 51.9798C40.5535 52.2552 41.8427 52.6713 42.1788 53.4762C42.3492 53.8843 42.2759 54.4213 41.9615 55.0704C41.9533 55.0881 41.9451 55.1055 41.9376 55.1237C41.859 55.3103 41.1261 56.9992 39.6227 58.7804C38.7684 59.7933 37.8275 60.6398 36.8276 61.2971C35.6071 62.0996 34.2865 62.6243 32.9028 62.8561C32.3594 62.9468 31.9714 63.4394 32.0017 63.9991C32.011 64.1603 32.0481 64.3212 32.1126 64.4768C32.1131 64.4777 32.1137 64.4787 32.1142 64.4795C32.3339 65.0024 32.8433 65.4465 33.6714 65.8382C34.6834 66.3164 36.1969 66.7187 38.1695 67.0334C38.2692 67.2262 38.3727 67.7108 38.4443 68.0427C38.5193 68.3953 38.5975 68.7579 38.709 69.1431C38.8292 69.5604 39.1412 70.0591 39.9427 70.0591C40.2464 70.0591 40.5957 69.9895 41.0002 69.9097C41.5926 69.7915 42.4026 69.6302 43.4136 69.6302C43.9742 69.6302 44.5551 69.6804 45.1398 69.7792C46.267 69.9701 47.2386 70.6684 48.3629 71.4771C50.0085 72.6605 51.8712 74 54.7171 74C54.7947 74 54.8726 73.9975 54.9495 73.992C55.0435 73.9965 55.1601 74 55.2831 74C58.1299 74 59.9921 72.66 61.6359 71.4776L61.6385 71.4751C62.7631 70.6674 63.7337 69.9701 64.8605 69.7792C65.445 69.6805 66.0257 69.6302 66.5865 69.6302C67.5524 69.6302 68.3171 69.7554 69 69.8909C69.4456 69.9802 69.7919 70.0231 70.0576 70.0231L70.0836 70.0236H70.1105C70.6967 70.0236 71.1274 69.6963 71.2918 69.1235C71.401 68.7464 71.479 68.3923 71.5558 68.0337C71.6228 67.7227 71.7299 67.2243 71.8295 67.0294C73.8034 66.7141 75.3164 66.3126 76.3285 65.8346C77.1547 65.4447 77.6635 65.001 77.8845 64.4804C77.9508 64.3243 77.9896 64.1625 77.9983 63.9978C78.0294 63.4391 77.6407 62.9456 77.097 62.8549C70.9475 61.8238 68.1772 55.3957 68.0626 55.1226C68.0552 55.1046 68.0469 55.0868 68.0382 55.0695C67.7238 54.4201 67.6512 53.8837 67.8217 53.4749C68.1571 52.6707 69.4454 52.2546 70.2978 51.9793C70.5446 51.9002 70.7771 51.8251 70.9709 51.7472C71.81 51.41 72.4098 51.0443 72.8054 50.6289C73.278 50.1337 73.37 49.6593 73.3643 49.3488C73.3499 48.5976 72.7854 47.9301 71.8875 47.6033C71.5842 47.4757 71.2384 47.4084 70.8862 47.4084C70.6465 47.4084 70.2915 47.4419 69.9554 47.6015C69.236 47.944 68.5915 48.1312 68.0383 48.1579C67.7441 48.1427 67.5377 48.0779 67.4041 48.0159C67.4209 47.7229 67.4395 47.4219 67.4587 47.108L67.4667 46.9736C67.6637 43.7974 67.9086 39.8445 66.8801 37.4978C66.1752 35.8905 65.2287 34.5082 64.0663 33.3875C63.0914 32.4483 61.9589 31.6871 60.6995 31.1244C58.5079 30.1461 56.4649 30 55.4423 30Z" fill="#020202"/>
</svg>
