<svg width="149" height="40" viewBox="0 0 149 40" fill="none" xmlns="http://www.w3.org/2000/svg">
<path d="M54.1211 18.7572C53.4288 18.7572 52.8985 18.5807 52.5303 18.2276C52.1768 17.8598 52 17.3375 52 16.6607V5.29517C52 4.61839 52.1768 4.10345 52.5303 3.75035C52.8985 3.38253 53.4288 3.19862 54.1211 3.19862H59.5122C60.6317 3.19862 61.5818 3.36782 62.3625 3.70621C63.1579 4.02989 63.7618 4.49333 64.1742 5.09655C64.5867 5.69977 64.7929 6.40598 64.7929 7.21517C64.7929 8.12736 64.5278 8.90713 63.9975 9.55448C63.4819 10.2018 62.7749 10.6432 61.8764 10.8786V10.5255C62.9369 10.7168 63.7544 11.1434 64.3289 11.8055C64.9181 12.4676 65.2127 13.3136 65.2127 14.3434C65.2127 15.7117 64.7192 16.7931 63.7323 17.5876C62.7602 18.3674 61.4271 18.7572 59.7332 18.7572H54.1211ZM55.8887 15.7779H59.1808C59.932 15.7779 60.477 15.6382 60.8158 15.3586C61.1693 15.0644 61.3461 14.6303 61.3461 14.0566C61.3461 13.4828 61.1693 13.0561 60.8158 12.7766C60.477 12.497 59.932 12.3572 59.1808 12.3572H55.8887V15.7779ZM55.8887 9.37793H58.7831C59.5196 9.37793 60.0572 9.24552 60.396 8.98069C60.7495 8.71586 60.9263 8.31126 60.9263 7.7669C60.9263 7.22253 60.7495 6.82529 60.396 6.57517C60.0572 6.31034 59.5196 6.17793 58.7831 6.17793H55.8887V9.37793Z" fill="url(#paint0_linear_53_175)"/>
<path d="M73.1701 19C71.8444 19 70.6955 18.772 69.7233 18.3159C68.7659 17.8451 68.0294 17.183 67.5138 16.3297C66.9983 15.4763 66.7405 14.4685 66.7405 13.3062C66.7405 12.188 66.9836 11.2097 67.4696 10.371C67.9705 9.5177 68.648 8.85563 69.5024 8.38483C70.3714 7.89931 71.3583 7.65655 72.4631 7.65655C73.2732 7.65655 74.0097 7.78897 74.6725 8.05379C75.3354 8.30391 75.9025 8.67908 76.3738 9.17931C76.8452 9.66483 77.1987 10.2533 77.4344 10.9448C77.6848 11.6363 77.81 12.4087 77.81 13.2621C77.81 13.5563 77.729 13.777 77.567 13.9241C77.4049 14.0566 77.1472 14.1228 76.7936 14.1228H70.0326V12.269H74.9377L74.5842 12.5559C74.5842 12.0115 74.5105 11.5701 74.3632 11.2317C74.2159 10.8933 73.995 10.6359 73.7004 10.4593C73.4205 10.2828 73.067 10.1945 72.6398 10.1945C72.1832 10.1945 71.7855 10.3048 71.4467 10.5255C71.1226 10.7315 70.8722 11.0405 70.6955 11.4524C70.5187 11.8644 70.4303 12.3793 70.4303 12.9972V13.1959C70.4303 14.2405 70.6587 14.9908 71.1153 15.4469C71.5866 15.8883 72.3084 16.109 73.2806 16.109C73.6046 16.109 73.9729 16.0722 74.3853 15.9986C74.8125 15.9103 75.2175 15.7926 75.6005 15.6455C75.9835 15.4984 76.3149 15.4763 76.5948 15.5793C76.8747 15.6676 77.0882 15.8294 77.2355 16.0648C77.3976 16.2855 77.4859 16.543 77.5007 16.8372C77.5154 17.1168 77.4491 17.3963 77.3018 17.6759C77.1545 17.9407 76.9115 18.1467 76.5727 18.2938C76.0572 18.5292 75.5048 18.7057 74.9156 18.8234C74.3411 18.9412 73.7593 19 73.1701 19Z" fill="url(#paint1_linear_53_175)"/>
<path d="M83.6361 19C82.2221 19 81.1762 18.6248 80.4987 17.8745C79.8358 17.1094 79.5044 15.9618 79.5044 14.4317V4.98621C79.5044 4.33885 79.6738 3.84598 80.0126 3.50759C80.3514 3.1692 80.8301 3 81.4487 3C82.0821 3 82.5682 3.1692 82.907 3.50759C83.2605 3.84598 83.4373 4.33885 83.4373 4.98621V14.2993C83.4373 14.8437 83.5404 15.2409 83.7466 15.491C83.9675 15.7411 84.2474 15.8662 84.5862 15.8662C84.6893 15.8662 84.7924 15.8589 84.8955 15.8441C85.0134 15.8147 85.1386 15.7926 85.2711 15.7779C85.5216 15.7779 85.7057 15.8736 85.8235 16.0648C85.9561 16.2561 86.0224 16.646 86.0224 17.2345C86.0224 17.7494 85.9193 18.1393 85.713 18.4041C85.5068 18.6543 85.1901 18.8161 84.763 18.8897C84.6451 18.9044 84.4757 18.9264 84.2548 18.9559C84.0338 18.9853 83.8276 19 83.6361 19Z" fill="url(#paint2_linear_53_175)"/>
<path d="M92.9993 19C91.6736 19 90.5247 18.772 89.5525 18.3159C88.5951 17.8451 87.8586 17.183 87.343 16.3297C86.8275 15.4763 86.5697 14.4685 86.5697 13.3062C86.5697 12.188 86.8128 11.2097 87.2989 10.371C87.7997 9.5177 88.4772 8.85563 89.3316 8.38483C90.2006 7.89931 91.1875 7.65655 92.2923 7.65655C93.1024 7.65655 93.8389 7.78897 94.5018 8.05379C95.1646 8.30391 95.7317 8.67908 96.2031 9.17931C96.6744 9.66483 97.0279 10.2533 97.2636 10.9448C97.514 11.6363 97.6392 12.4087 97.6392 13.2621C97.6392 13.5563 97.5582 13.777 97.3962 13.9241C97.2342 14.0566 96.9764 14.1228 96.6229 14.1228H89.8619V12.269H94.7669L94.4134 12.5559C94.4134 12.0115 94.3397 11.5701 94.1924 11.2317C94.0451 10.8933 93.8242 10.6359 93.5296 10.4593C93.2497 10.2828 92.8962 10.1945 92.469 10.1945C92.0124 10.1945 91.6147 10.3048 91.2759 10.5255C90.9519 10.7315 90.7015 11.0405 90.5247 11.4524C90.3479 11.8644 90.2596 12.3793 90.2596 12.9972V13.1959C90.2596 14.2405 90.4879 14.9908 90.9445 15.4469C91.4159 15.8883 92.1376 16.109 93.1098 16.109C93.4339 16.109 93.8021 16.0722 94.2145 15.9986C94.6417 15.9103 95.0468 15.7926 95.4297 15.6455C95.8127 15.4984 96.1441 15.4763 96.424 15.5793C96.7039 15.6676 96.9175 15.8294 97.0648 16.0648C97.2268 16.2855 97.3152 16.543 97.3299 16.8372C97.3446 17.1168 97.2783 17.3963 97.131 17.6759C96.9837 17.9407 96.7407 18.1467 96.4019 18.2938C95.8864 18.5292 95.334 18.7057 94.7448 18.8234C94.1703 18.9412 93.5885 19 92.9993 19Z" fill="url(#paint3_linear_53_175)"/>
<path d="M104.879 19C103.657 19 102.589 18.772 101.676 18.3159C100.777 17.8598 100.077 17.2051 99.5767 16.3517C99.0758 15.4837 98.8254 14.4685 98.8254 13.3062C98.8254 12.4234 98.9654 11.6363 99.2452 10.9448C99.5251 10.2386 99.9302 9.64276 100.46 9.15724C101.005 8.67172 101.646 8.30391 102.383 8.05379C103.134 7.78897 103.966 7.65655 104.879 7.65655C105.307 7.65655 105.756 7.70069 106.227 7.78897C106.699 7.86253 107.185 8.00966 107.685 8.23034C108.039 8.36276 108.282 8.56874 108.415 8.84828C108.562 9.1131 108.621 9.4 108.591 9.70897C108.577 10.0179 108.488 10.2975 108.326 10.5476C108.179 10.7977 107.965 10.9669 107.685 11.0552C107.42 11.1434 107.118 11.1067 106.78 10.9448C106.544 10.8271 106.293 10.7462 106.028 10.7021C105.778 10.6432 105.535 10.6138 105.299 10.6138C104.902 10.6138 104.548 10.6726 104.239 10.7903C103.944 10.908 103.694 11.0846 103.487 11.32C103.281 11.5407 103.119 11.8202 103.001 12.1586C102.898 12.497 102.847 12.8795 102.847 13.3062C102.847 14.1595 103.06 14.829 103.487 15.3145C103.915 15.8 104.519 16.0428 105.299 16.0428C105.535 16.0428 105.778 16.0207 106.028 15.9766C106.279 15.9177 106.529 15.8294 106.78 15.7117C107.118 15.5499 107.42 15.5205 107.685 15.6234C107.951 15.7117 108.164 15.8809 108.326 16.131C108.488 16.3812 108.577 16.6607 108.591 16.9697C108.606 17.2639 108.54 17.5508 108.392 17.8303C108.245 18.0952 107.995 18.2938 107.641 18.4262C107.155 18.6469 106.676 18.794 106.205 18.8676C105.748 18.9559 105.307 19 104.879 19Z" fill="url(#paint4_linear_53_175)"/>
<path d="M115.322 19C114.114 19 113.061 18.772 112.162 18.3159C111.264 17.8598 110.564 17.2051 110.063 16.3517C109.562 15.4984 109.312 14.4906 109.312 13.3283C109.312 12.4455 109.452 11.6584 109.732 10.9669C110.012 10.2607 110.417 9.66483 110.947 9.17931C111.477 8.67908 112.111 8.30391 112.847 8.05379C113.583 7.78897 114.408 7.65655 115.322 7.65655C116.529 7.65655 117.583 7.8846 118.481 8.34069C119.38 8.79678 120.072 9.45149 120.558 10.3048C121.059 11.1434 121.309 12.1513 121.309 13.3283C121.309 14.1963 121.169 14.9834 120.89 15.6897C120.61 16.3959 120.205 16.9991 119.674 17.4993C119.159 17.9848 118.525 18.36 117.774 18.6248C117.038 18.8749 116.22 19 115.322 19ZM115.322 16.109C115.719 16.109 116.073 16.0133 116.382 15.8221C116.692 15.6161 116.927 15.3145 117.089 14.9172C117.266 14.5053 117.354 13.9756 117.354 13.3283C117.354 12.3425 117.163 11.6363 116.78 11.2097C116.397 10.7683 115.911 10.5476 115.322 10.5476C114.924 10.5476 114.57 10.6432 114.261 10.8345C113.952 11.0257 113.709 11.3274 113.532 11.7393C113.355 12.1366 113.267 12.6662 113.267 13.3283C113.267 14.2993 113.458 15.0055 113.841 15.4469C114.224 15.8883 114.718 16.109 115.322 16.109Z" fill="url(#paint5_linear_53_175)"/>
<path d="M125.056 18.9559C124.437 18.9559 123.958 18.7867 123.62 18.4483C123.281 18.1099 123.111 17.617 123.111 16.9697V9.66483C123.111 9.03218 123.273 8.54667 123.598 8.20828C123.936 7.86988 124.415 7.70069 125.034 7.70069C125.652 7.70069 126.124 7.86988 126.448 8.20828C126.772 8.54667 126.934 9.03218 126.934 9.66483V10.7021L126.691 9.79724C127.044 9.10575 127.545 8.57609 128.193 8.20828C128.856 7.84046 129.607 7.65655 130.447 7.65655C131.316 7.65655 132.03 7.82575 132.59 8.16414C133.15 8.48782 133.57 9.00276 133.849 9.70897C134.129 10.4005 134.269 11.2759 134.269 12.3352V16.9697C134.269 17.617 134.1 18.1099 133.761 18.4483C133.422 18.7867 132.936 18.9559 132.303 18.9559C131.669 18.9559 131.183 18.7867 130.845 18.4483C130.506 18.1099 130.336 17.617 130.336 16.9697V12.4897C130.336 11.8276 130.219 11.3568 129.983 11.0772C129.762 10.7977 129.431 10.6579 128.989 10.6579C128.399 10.6579 127.928 10.8492 127.575 11.2317C127.221 11.5995 127.044 12.0998 127.044 12.7324V16.9697C127.044 18.2938 126.381 18.9559 125.056 18.9559Z" fill="url(#paint6_linear_53_175)"/>
<path d="M142.012 19C140.804 19 139.751 18.772 138.853 18.3159C137.954 17.8598 137.255 17.2051 136.754 16.3517C136.253 15.4984 136.003 14.4906 136.003 13.3283C136.003 12.4455 136.142 11.6584 136.422 10.9669C136.702 10.2607 137.107 9.66483 137.638 9.17931C138.168 8.67908 138.801 8.30391 139.538 8.05379C140.274 7.78897 141.099 7.65655 142.012 7.65655C143.22 7.65655 144.273 7.8846 145.172 8.34069C146.07 8.79678 146.763 9.45149 147.249 10.3048C147.75 11.1434 148 12.1513 148 13.3283C148 14.1963 147.86 14.9834 147.58 15.6897C147.3 16.3959 146.895 16.9991 146.365 17.4993C145.849 17.9848 145.216 18.36 144.465 18.6248C143.728 18.8749 142.911 19 142.012 19ZM142.012 16.109C142.41 16.109 142.764 16.0133 143.073 15.8221C143.382 15.6161 143.618 15.3145 143.78 14.9172C143.957 14.5053 144.045 13.9756 144.045 13.3283C144.045 12.3425 143.854 11.6363 143.471 11.2097C143.088 10.7683 142.602 10.5476 142.012 10.5476C141.615 10.5476 141.261 10.6432 140.952 10.8345C140.642 11.0257 140.399 11.3274 140.223 11.7393C140.046 12.1366 139.958 12.6662 139.958 13.3283C139.958 14.2993 140.149 15.0055 140.532 15.4469C140.915 15.8883 141.408 16.109 142.012 16.109Z" fill="url(#paint7_linear_53_175)"/>
<path d="M2 38.8222V2.08163H15.31C18.7747 2.08163 22.4339 2.54832 24.8545 5.02718C26.2931 6.50044 27.538 8.55394 27.538 11.249C27.538 18.3792 20.5544 19.7299 20.5544 19.9411C20.5544 20.1523 28.2921 21.2489 28.2921 29.3298C28.2921 33.3002 25.5932 35.5344 23.3833 36.6984C21.5942 37.6408 19.534 37.7979 17.5119 37.7979H8.62423M8.62423 37.7979H7.17969M8.62423 37.7979V8.91074H20.78M32.3212 38.8222C38.5357 32.0614 35.8041 23.4567 31.9798 20.2471C37.3065 12.8033 34.9163 5.15473 31.7749 1.19385" stroke="url(#paint8_linear_53_175)" stroke-width="2.89362"/>
<path d="M53.9043 29.9199V35H52.8145V28.6602H53.8457L53.9043 29.9199ZM53.6816 31.5898L53.1777 31.5723C53.1816 31.1387 53.2383 30.7383 53.3477 30.3711C53.457 30 53.6191 29.6777 53.834 29.4043C54.0488 29.1309 54.3164 28.9199 54.6367 28.7715C54.957 28.6191 55.3281 28.543 55.75 28.543C56.0469 28.543 56.3203 28.5859 56.5703 28.6719C56.8203 28.7539 57.0371 28.8848 57.2207 29.0645C57.4043 29.2441 57.5469 29.4746 57.6484 29.7559C57.75 30.0371 57.8008 30.377 57.8008 30.7754V35H56.7168V30.8281C56.7168 30.4961 56.6602 30.2305 56.5469 30.0312C56.4375 29.832 56.2812 29.6875 56.0781 29.5977C55.875 29.5039 55.6367 29.457 55.3633 29.457C55.043 29.457 54.7754 29.5137 54.5605 29.627C54.3457 29.7402 54.1738 29.8965 54.0449 30.0957C53.916 30.2949 53.8223 30.5234 53.7637 30.7812C53.709 31.0352 53.6816 31.3047 53.6816 31.5898ZM57.7891 30.9922L57.0625 31.2148C57.0664 30.8672 57.123 30.5332 57.2324 30.2129C57.3457 29.8926 57.5078 29.6074 57.7188 29.3574C57.9336 29.1074 58.1973 28.9102 58.5098 28.7656C58.8223 28.6172 59.1797 28.543 59.582 28.543C59.9219 28.543 60.2227 28.5879 60.4844 28.6777C60.75 28.7676 60.9727 28.9062 61.1523 29.0938C61.3359 29.2773 61.4746 29.5137 61.5684 29.8027C61.6621 30.0918 61.709 30.4355 61.709 30.834V35H60.6191V30.8223C60.6191 30.4668 60.5625 30.1914 60.4492 29.9961C60.3398 29.7969 60.1836 29.6582 59.9805 29.5801C59.7812 29.498 59.543 29.457 59.2656 29.457C59.0273 29.457 58.8164 29.498 58.6328 29.5801C58.4492 29.6621 58.2949 29.7754 58.1699 29.9199C58.0449 30.0605 57.9492 30.2227 57.8828 30.4062C57.8203 30.5898 57.7891 30.7852 57.7891 30.9922ZM67.0879 33.916V30.6523C67.0879 30.4023 67.0371 30.1855 66.9355 30.002C66.8379 29.8145 66.6895 29.6699 66.4902 29.5684C66.291 29.4668 66.0449 29.416 65.752 29.416C65.4785 29.416 65.2383 29.4629 65.0312 29.5566C64.8281 29.6504 64.668 29.7734 64.5508 29.9258C64.4375 30.0781 64.3809 30.2422 64.3809 30.418H63.2969C63.2969 30.1914 63.3555 29.9668 63.4727 29.7441C63.5898 29.5215 63.7578 29.3203 63.9766 29.1406C64.1992 28.957 64.4648 28.8125 64.7734 28.707C65.0859 28.5977 65.4336 28.543 65.8164 28.543C66.2773 28.543 66.6836 28.6211 67.0352 28.7773C67.3906 28.9336 67.668 29.1699 67.8672 29.4863C68.0703 29.7988 68.1719 30.1914 68.1719 30.6641V33.6172C68.1719 33.8281 68.1895 34.0527 68.2246 34.291C68.2637 34.5293 68.3203 34.7344 68.3945 34.9062V35H67.2637C67.209 34.875 67.166 34.709 67.1348 34.502C67.1035 34.291 67.0879 34.0957 67.0879 33.916ZM67.2754 31.1562L67.2871 31.918H66.1914C65.8828 31.918 65.6074 31.9434 65.3652 31.9941C65.123 32.041 64.9199 32.1133 64.7559 32.2109C64.5918 32.3086 64.4668 32.4316 64.3809 32.5801C64.2949 32.7246 64.252 32.8945 64.252 33.0898C64.252 33.2891 64.2969 33.4707 64.3867 33.6348C64.4766 33.7988 64.6113 33.9297 64.791 34.0273C64.9746 34.1211 65.1992 34.168 65.4648 34.168C65.7969 34.168 66.0898 34.0977 66.3438 33.957C66.5977 33.8164 66.7988 33.6445 66.9473 33.4414C67.0996 33.2383 67.1816 33.041 67.1934 32.8496L67.6562 33.3711C67.6289 33.5352 67.5547 33.7168 67.4336 33.916C67.3125 34.1152 67.1504 34.3066 66.9473 34.4902C66.748 34.6699 66.5098 34.8203 66.2324 34.9414C65.959 35.0586 65.6504 35.1172 65.3066 35.1172C64.877 35.1172 64.5 35.0332 64.1758 34.8652C63.8555 34.6973 63.6055 34.4727 63.4258 34.1914C63.25 33.9062 63.1621 33.5879 63.1621 33.2363C63.1621 32.8965 63.2285 32.5977 63.3613 32.3398C63.4941 32.0781 63.6855 31.8613 63.9355 31.6895C64.1855 31.5137 64.4863 31.3809 64.8379 31.291C65.1895 31.2012 65.582 31.1562 66.0156 31.1562H67.2754ZM70.9609 29.6562V35H69.877V28.6602H70.9316L70.9609 29.6562ZM72.9414 28.625L72.9355 29.6328C72.8457 29.6133 72.7598 29.6016 72.6777 29.5977C72.5996 29.5898 72.5098 29.5859 72.4082 29.5859C72.1582 29.5859 71.9375 29.625 71.7461 29.7031C71.5547 29.7812 71.3926 29.8906 71.2598 30.0312C71.127 30.1719 71.0215 30.3398 70.9434 30.5352C70.8691 30.7266 70.8203 30.9375 70.7969 31.168L70.4922 31.3438C70.4922 30.9609 70.5293 30.6016 70.6035 30.2656C70.6816 29.9297 70.8008 29.6328 70.9609 29.375C71.1211 29.1133 71.3242 28.9102 71.5703 28.7656C71.8203 28.6172 72.1172 28.543 72.4609 28.543C72.5391 28.543 72.6289 28.5527 72.7305 28.5723C72.832 28.5879 72.9023 28.6055 72.9414 28.625ZM75.0332 26V35H73.9434V26H75.0332ZM78.9062 28.6602L76.1406 31.6191L74.5938 33.2246L74.5059 32.0703L75.6133 30.7461L77.582 28.6602H78.9062ZM77.916 35L75.6543 31.9766L76.2168 31.0098L79.1934 35H77.916ZM82.5391 35.1172C82.0977 35.1172 81.6973 35.043 81.3379 34.8945C80.9824 34.7422 80.6758 34.5293 80.418 34.2559C80.1641 33.9824 79.9688 33.6582 79.832 33.2832C79.6953 32.9082 79.627 32.498 79.627 32.0527V31.8066C79.627 31.291 79.7031 30.832 79.8555 30.4297C80.0078 30.0234 80.2148 29.6797 80.4766 29.3984C80.7383 29.1172 81.0352 28.9043 81.3672 28.7598C81.6992 28.6152 82.043 28.543 82.3984 28.543C82.8516 28.543 83.2422 28.6211 83.5703 28.7773C83.9023 28.9336 84.1738 29.1523 84.3848 29.4336C84.5957 29.7109 84.752 30.0391 84.8535 30.418C84.9551 30.793 85.0059 31.2031 85.0059 31.6484V32.1348H80.2715V31.25H83.9219V31.168C83.9062 30.8867 83.8477 30.6133 83.7461 30.3477C83.6484 30.082 83.4922 29.8633 83.2773 29.6914C83.0625 29.5195 82.7695 29.4336 82.3984 29.4336C82.1523 29.4336 81.9258 29.4863 81.7188 29.5918C81.5117 29.6934 81.334 29.8457 81.1855 30.0488C81.0371 30.252 80.9219 30.5 80.8398 30.793C80.7578 31.0859 80.7168 31.4238 80.7168 31.8066V32.0527C80.7168 32.3535 80.7578 32.6367 80.8398 32.9023C80.9258 33.1641 81.0488 33.3945 81.209 33.5938C81.373 33.793 81.5703 33.9492 81.8008 34.0625C82.0352 34.1758 82.3008 34.2324 82.5977 34.2324C82.9805 34.2324 83.3047 34.1543 83.5703 33.998C83.8359 33.8418 84.0684 33.6328 84.2676 33.3711L84.9238 33.8926C84.7871 34.0996 84.6133 34.2969 84.4023 34.4844C84.1914 34.6719 83.9316 34.8242 83.623 34.9414C83.3184 35.0586 82.957 35.1172 82.5391 35.1172ZM88.9258 28.6602V29.4922H85.498V28.6602H88.9258ZM86.6582 27.1191H87.7422V33.4297C87.7422 33.6445 87.7754 33.8066 87.8418 33.916C87.9082 34.0254 87.9941 34.0977 88.0996 34.1328C88.2051 34.168 88.3184 34.1855 88.4395 34.1855C88.5293 34.1855 88.623 34.1777 88.7207 34.1621C88.8223 34.1426 88.8984 34.127 88.9492 34.1152L88.9551 35C88.8691 35.0273 88.7559 35.0527 88.6152 35.0762C88.4785 35.1035 88.3125 35.1172 88.1172 35.1172C87.8516 35.1172 87.6074 35.0645 87.3848 34.959C87.1621 34.8535 86.9844 34.6777 86.8516 34.4316C86.7227 34.1816 86.6582 33.8457 86.6582 33.4238V27.1191ZM91.375 28.6602V35H90.2852V28.6602H91.375ZM90.2031 26.9785C90.2031 26.8027 90.2559 26.6543 90.3613 26.5332C90.4707 26.4121 90.6309 26.3516 90.8418 26.3516C91.0488 26.3516 91.207 26.4121 91.3164 26.5332C91.4297 26.6543 91.4863 26.8027 91.4863 26.9785C91.4863 27.1465 91.4297 27.291 91.3164 27.4121C91.207 27.5293 91.0488 27.5879 90.8418 27.5879C90.6309 27.5879 90.4707 27.5293 90.3613 27.4121C90.2559 27.291 90.2031 27.1465 90.2031 26.9785ZM94.1992 30.0137V35H93.1152V28.6602H94.1406L94.1992 30.0137ZM93.9414 31.5898L93.4902 31.5723C93.4941 31.1387 93.5586 30.7383 93.6836 30.3711C93.8086 30 93.9844 29.6777 94.2109 29.4043C94.4375 29.1309 94.707 28.9199 95.0195 28.7715C95.3359 28.6191 95.6855 28.543 96.0684 28.543C96.3809 28.543 96.6621 28.5859 96.9121 28.6719C97.1621 28.7539 97.375 28.8867 97.5508 29.0703C97.7305 29.2539 97.8672 29.4922 97.9609 29.7852C98.0547 30.0742 98.1016 30.4277 98.1016 30.8457V35H97.0117V30.834C97.0117 30.502 96.9629 30.2363 96.8652 30.0371C96.7676 29.834 96.625 29.6875 96.4375 29.5977C96.25 29.5039 96.0195 29.457 95.7461 29.457C95.4766 29.457 95.2305 29.5137 95.0078 29.627C94.7891 29.7402 94.5996 29.8965 94.4395 30.0957C94.2832 30.2949 94.1602 30.5234 94.0703 30.7812C93.9844 31.0352 93.9414 31.3047 93.9414 31.5898ZM103.855 28.6602H104.84V34.8652C104.84 35.4238 104.727 35.9004 104.5 36.2949C104.273 36.6895 103.957 36.9883 103.551 37.1914C103.148 37.3984 102.684 37.502 102.156 37.502C101.938 37.502 101.68 37.4668 101.383 37.3965C101.09 37.3301 100.801 37.2148 100.516 37.0508C100.234 36.8906 99.998 36.6738 99.8066 36.4004L100.375 35.7559C100.641 36.0762 100.918 36.2988 101.207 36.4238C101.5 36.5488 101.789 36.6113 102.074 36.6113C102.418 36.6113 102.715 36.5469 102.965 36.418C103.215 36.2891 103.408 36.0977 103.545 35.8438C103.686 35.5938 103.756 35.2852 103.756 34.918V30.0547L103.855 28.6602ZM99.4902 31.9004V31.7773C99.4902 31.293 99.5469 30.8535 99.6602 30.459C99.7773 30.0605 99.9434 29.7188 100.158 29.4336C100.377 29.1484 100.641 28.9297 100.949 28.7773C101.258 28.6211 101.605 28.543 101.992 28.543C102.391 28.543 102.738 28.6133 103.035 28.7539C103.336 28.8906 103.59 29.0918 103.797 29.3574C104.008 29.6191 104.174 29.9355 104.295 30.3066C104.416 30.6777 104.5 31.0977 104.547 31.5664V32.1055C104.504 32.5703 104.42 32.9883 104.295 33.3594C104.174 33.7305 104.008 34.0469 103.797 34.3086C103.59 34.5703 103.336 34.7715 103.035 34.9121C102.734 35.0488 102.383 35.1172 101.98 35.1172C101.602 35.1172 101.258 35.0371 100.949 34.877C100.645 34.7168 100.383 34.4922 100.164 34.2031C99.9453 33.9141 99.7773 33.5742 99.6602 33.1836C99.5469 32.7891 99.4902 32.3613 99.4902 31.9004ZM100.574 31.7773V31.9004C100.574 32.2168 100.605 32.5137 100.668 32.791C100.734 33.0684 100.834 33.3125 100.967 33.5234C101.104 33.7344 101.277 33.9004 101.488 34.0215C101.699 34.1387 101.951 34.1973 102.244 34.1973C102.604 34.1973 102.9 34.1211 103.135 33.9688C103.369 33.8164 103.555 33.6152 103.691 33.3652C103.832 33.1152 103.941 32.8438 104.02 32.5508V31.1387C103.977 30.9238 103.91 30.7168 103.82 30.5176C103.734 30.3145 103.621 30.1348 103.48 29.9785C103.344 29.8184 103.174 29.6914 102.971 29.5977C102.768 29.5039 102.529 29.457 102.256 29.457C101.959 29.457 101.703 29.5195 101.488 29.6445C101.277 29.7656 101.104 29.9336 100.967 30.1484C100.834 30.3594 100.734 30.6055 100.668 30.8867C100.605 31.1641 100.574 31.4609 100.574 31.7773ZM113.201 33.916V30.6523C113.201 30.4023 113.15 30.1855 113.049 30.002C112.951 29.8145 112.803 29.6699 112.604 29.5684C112.404 29.4668 112.158 29.416 111.865 29.416C111.592 29.416 111.352 29.4629 111.145 29.5566C110.941 29.6504 110.781 29.7734 110.664 29.9258C110.551 30.0781 110.494 30.2422 110.494 30.418H109.41C109.41 30.1914 109.469 29.9668 109.586 29.7441C109.703 29.5215 109.871 29.3203 110.09 29.1406C110.312 28.957 110.578 28.8125 110.887 28.707C111.199 28.5977 111.547 28.543 111.93 28.543C112.391 28.543 112.797 28.6211 113.148 28.7773C113.504 28.9336 113.781 29.1699 113.98 29.4863C114.184 29.7988 114.285 30.1914 114.285 30.6641V33.6172C114.285 33.8281 114.303 34.0527 114.338 34.291C114.377 34.5293 114.434 34.7344 114.508 34.9062V35H113.377C113.322 34.875 113.279 34.709 113.248 34.502C113.217 34.291 113.201 34.0957 113.201 33.916ZM113.389 31.1562L113.4 31.918H112.305C111.996 31.918 111.721 31.9434 111.479 31.9941C111.236 32.041 111.033 32.1133 110.869 32.2109C110.705 32.3086 110.58 32.4316 110.494 32.5801C110.408 32.7246 110.365 32.8945 110.365 33.0898C110.365 33.2891 110.41 33.4707 110.5 33.6348C110.59 33.7988 110.725 33.9297 110.904 34.0273C111.088 34.1211 111.312 34.168 111.578 34.168C111.91 34.168 112.203 34.0977 112.457 33.957C112.711 33.8164 112.912 33.6445 113.061 33.4414C113.213 33.2383 113.295 33.041 113.307 32.8496L113.77 33.3711C113.742 33.5352 113.668 33.7168 113.547 33.916C113.426 34.1152 113.264 34.3066 113.061 34.4902C112.861 34.6699 112.623 34.8203 112.346 34.9414C112.072 35.0586 111.764 35.1172 111.42 35.1172C110.99 35.1172 110.613 35.0332 110.289 34.8652C109.969 34.6973 109.719 34.4727 109.539 34.1914C109.363 33.9062 109.275 33.5879 109.275 33.2363C109.275 32.8965 109.342 32.5977 109.475 32.3398C109.607 32.0781 109.799 31.8613 110.049 31.6895C110.299 31.5137 110.6 31.3809 110.951 31.291C111.303 31.2012 111.695 31.1562 112.129 31.1562H113.389ZM120.098 28.6602H121.082V34.8652C121.082 35.4238 120.969 35.9004 120.742 36.2949C120.516 36.6895 120.199 36.9883 119.793 37.1914C119.391 37.3984 118.926 37.502 118.398 37.502C118.18 37.502 117.922 37.4668 117.625 37.3965C117.332 37.3301 117.043 37.2148 116.758 37.0508C116.477 36.8906 116.24 36.6738 116.049 36.4004L116.617 35.7559C116.883 36.0762 117.16 36.2988 117.449 36.4238C117.742 36.5488 118.031 36.6113 118.316 36.6113C118.66 36.6113 118.957 36.5469 119.207 36.418C119.457 36.2891 119.65 36.0977 119.787 35.8438C119.928 35.5938 119.998 35.2852 119.998 34.918V30.0547L120.098 28.6602ZM115.732 31.9004V31.7773C115.732 31.293 115.789 30.8535 115.902 30.459C116.02 30.0605 116.186 29.7188 116.4 29.4336C116.619 29.1484 116.883 28.9297 117.191 28.7773C117.5 28.6211 117.848 28.543 118.234 28.543C118.633 28.543 118.98 28.6133 119.277 28.7539C119.578 28.8906 119.832 29.0918 120.039 29.3574C120.25 29.6191 120.416 29.9355 120.537 30.3066C120.658 30.6777 120.742 31.0977 120.789 31.5664V32.1055C120.746 32.5703 120.662 32.9883 120.537 33.3594C120.416 33.7305 120.25 34.0469 120.039 34.3086C119.832 34.5703 119.578 34.7715 119.277 34.9121C118.977 35.0488 118.625 35.1172 118.223 35.1172C117.844 35.1172 117.5 35.0371 117.191 34.877C116.887 34.7168 116.625 34.4922 116.406 34.2031C116.188 33.9141 116.02 33.5742 115.902 33.1836C115.789 32.7891 115.732 32.3613 115.732 31.9004ZM116.816 31.7773V31.9004C116.816 32.2168 116.848 32.5137 116.91 32.791C116.977 33.0684 117.076 33.3125 117.209 33.5234C117.346 33.7344 117.52 33.9004 117.73 34.0215C117.941 34.1387 118.193 34.1973 118.486 34.1973C118.846 34.1973 119.143 34.1211 119.377 33.9688C119.611 33.8164 119.797 33.6152 119.934 33.3652C120.074 33.1152 120.184 32.8438 120.262 32.5508V31.1387C120.219 30.9238 120.152 30.7168 120.062 30.5176C119.977 30.3145 119.863 30.1348 119.723 29.9785C119.586 29.8184 119.416 29.6914 119.213 29.5977C119.01 29.5039 118.771 29.457 118.498 29.457C118.201 29.457 117.945 29.5195 117.73 29.6445C117.52 29.7656 117.346 29.9336 117.209 30.1484C117.076 30.3594 116.977 30.6055 116.91 30.8867C116.848 31.1641 116.816 31.4609 116.816 31.7773ZM125.359 35.1172C124.918 35.1172 124.518 35.043 124.158 34.8945C123.803 34.7422 123.496 34.5293 123.238 34.2559C122.984 33.9824 122.789 33.6582 122.652 33.2832C122.516 32.9082 122.447 32.498 122.447 32.0527V31.8066C122.447 31.291 122.523 30.832 122.676 30.4297C122.828 30.0234 123.035 29.6797 123.297 29.3984C123.559 29.1172 123.855 28.9043 124.188 28.7598C124.52 28.6152 124.863 28.543 125.219 28.543C125.672 28.543 126.062 28.6211 126.391 28.7773C126.723 28.9336 126.994 29.1523 127.205 29.4336C127.416 29.7109 127.572 30.0391 127.674 30.418C127.775 30.793 127.826 31.2031 127.826 31.6484V32.1348H123.092V31.25H126.742V31.168C126.727 30.8867 126.668 30.6133 126.566 30.3477C126.469 30.082 126.312 29.8633 126.098 29.6914C125.883 29.5195 125.59 29.4336 125.219 29.4336C124.973 29.4336 124.746 29.4863 124.539 29.5918C124.332 29.6934 124.154 29.8457 124.006 30.0488C123.857 30.252 123.742 30.5 123.66 30.793C123.578 31.0859 123.537 31.4238 123.537 31.8066V32.0527C123.537 32.3535 123.578 32.6367 123.66 32.9023C123.746 33.1641 123.869 33.3945 124.029 33.5938C124.193 33.793 124.391 33.9492 124.621 34.0625C124.855 34.1758 125.121 34.2324 125.418 34.2324C125.801 34.2324 126.125 34.1543 126.391 33.998C126.656 33.8418 126.889 33.6328 127.088 33.3711L127.744 33.8926C127.607 34.0996 127.434 34.2969 127.223 34.4844C127.012 34.6719 126.752 34.8242 126.443 34.9414C126.139 35.0586 125.777 35.1172 125.359 35.1172ZM130.176 30.0137V35H129.092V28.6602H130.117L130.176 30.0137ZM129.918 31.5898L129.467 31.5723C129.471 31.1387 129.535 30.7383 129.66 30.3711C129.785 30 129.961 29.6777 130.188 29.4043C130.414 29.1309 130.684 28.9199 130.996 28.7715C131.312 28.6191 131.662 28.543 132.045 28.543C132.357 28.543 132.639 28.5859 132.889 28.6719C133.139 28.7539 133.352 28.8867 133.527 29.0703C133.707 29.2539 133.844 29.4922 133.938 29.7852C134.031 30.0742 134.078 30.4277 134.078 30.8457V35H132.988V30.834C132.988 30.502 132.939 30.2363 132.842 30.0371C132.744 29.834 132.602 29.6875 132.414 29.5977C132.227 29.5039 131.996 29.457 131.723 29.457C131.453 29.457 131.207 29.5137 130.984 29.627C130.766 29.7402 130.576 29.8965 130.416 30.0957C130.26 30.2949 130.137 30.5234 130.047 30.7812C129.961 31.0352 129.918 31.3047 129.918 31.5898ZM138.262 34.2266C138.52 34.2266 138.758 34.1738 138.977 34.0684C139.195 33.9629 139.375 33.8184 139.516 33.6348C139.656 33.4473 139.736 33.2344 139.756 32.9961H140.787C140.768 33.3711 140.641 33.7207 140.406 34.0449C140.176 34.3652 139.873 34.625 139.498 34.8242C139.123 35.0195 138.711 35.1172 138.262 35.1172C137.785 35.1172 137.369 35.0332 137.014 34.8652C136.662 34.6973 136.369 34.4668 136.135 34.1738C135.904 33.8809 135.73 33.5449 135.613 33.166C135.5 32.7832 135.443 32.3789 135.443 31.9531V31.707C135.443 31.2812 135.5 30.8789 135.613 30.5C135.73 30.1172 135.904 29.7793 136.135 29.4863C136.369 29.1934 136.662 28.9629 137.014 28.7949C137.369 28.627 137.785 28.543 138.262 28.543C138.758 28.543 139.191 28.6445 139.562 28.8477C139.934 29.0469 140.225 29.3203 140.436 29.668C140.65 30.0117 140.768 30.4023 140.787 30.8398H139.756C139.736 30.5781 139.662 30.3418 139.533 30.1309C139.408 29.9199 139.236 29.752 139.018 29.627C138.803 29.498 138.551 29.4336 138.262 29.4336C137.93 29.4336 137.65 29.5 137.424 29.6328C137.201 29.7617 137.023 29.9375 136.891 30.1602C136.762 30.3789 136.668 30.623 136.609 30.8926C136.555 31.1582 136.527 31.4297 136.527 31.707V31.9531C136.527 32.2305 136.555 32.5039 136.609 32.7734C136.664 33.043 136.756 33.2871 136.885 33.5059C137.018 33.7246 137.195 33.9004 137.418 34.0332C137.645 34.1621 137.926 34.2266 138.262 34.2266ZM143.787 34.3438L145.551 28.6602H146.711L144.168 35.9785C144.109 36.1348 144.031 36.3027 143.934 36.4824C143.84 36.666 143.719 36.8398 143.57 37.0039C143.422 37.168 143.242 37.3008 143.031 37.4023C142.824 37.5078 142.576 37.5605 142.287 37.5605C142.201 37.5605 142.092 37.5488 141.959 37.5254C141.826 37.502 141.732 37.4824 141.678 37.4668L141.672 36.5879C141.703 36.5918 141.752 36.5957 141.818 36.5996C141.889 36.6074 141.938 36.6113 141.965 36.6113C142.211 36.6113 142.42 36.5781 142.592 36.5117C142.764 36.4492 142.908 36.3418 143.025 36.1895C143.146 36.041 143.25 35.8359 143.336 35.5742L143.787 34.3438ZM142.492 28.6602L144.139 33.582L144.42 34.7246L143.641 35.123L141.309 28.6602H142.492Z" fill="white"/>
<defs>
<linearGradient id="paint0_linear_53_175" x1="131.04" y1="3" x2="88.4694" y2="-28.2584" gradientUnits="userSpaceOnUse">
<stop stop-color="#339EFF"/>
<stop offset="1" stop-color="#FF68A0"/>
</linearGradient>
<linearGradient id="paint1_linear_53_175" x1="131.04" y1="3" x2="88.4694" y2="-28.2584" gradientUnits="userSpaceOnUse">
<stop stop-color="#339EFF"/>
<stop offset="1" stop-color="#FF68A0"/>
</linearGradient>
<linearGradient id="paint2_linear_53_175" x1="131.04" y1="3" x2="88.4694" y2="-28.2584" gradientUnits="userSpaceOnUse">
<stop stop-color="#339EFF"/>
<stop offset="1" stop-color="#FF68A0"/>
</linearGradient>
<linearGradient id="paint3_linear_53_175" x1="131.04" y1="3" x2="88.4694" y2="-28.2584" gradientUnits="userSpaceOnUse">
<stop stop-color="#339EFF"/>
<stop offset="1" stop-color="#FF68A0"/>
</linearGradient>
<linearGradient id="paint4_linear_53_175" x1="131.04" y1="3" x2="88.4694" y2="-28.2584" gradientUnits="userSpaceOnUse">
<stop stop-color="#339EFF"/>
<stop offset="1" stop-color="#FF68A0"/>
</linearGradient>
<linearGradient id="paint5_linear_53_175" x1="131.04" y1="3" x2="88.4694" y2="-28.2584" gradientUnits="userSpaceOnUse">
<stop stop-color="#339EFF"/>
<stop offset="1" stop-color="#FF68A0"/>
</linearGradient>
<linearGradient id="paint6_linear_53_175" x1="131.04" y1="3" x2="88.4694" y2="-28.2584" gradientUnits="userSpaceOnUse">
<stop stop-color="#339EFF"/>
<stop offset="1" stop-color="#FF68A0"/>
</linearGradient>
<linearGradient id="paint7_linear_53_175" x1="131.04" y1="3" x2="88.4694" y2="-28.2584" gradientUnits="userSpaceOnUse">
<stop stop-color="#339EFF"/>
<stop offset="1" stop-color="#FF68A0"/>
</linearGradient>
<linearGradient id="paint8_linear_53_175" x1="29.9933" y1="1.19385" x2="7.06768" y2="-1.34123" gradientUnits="userSpaceOnUse">
<stop stop-color="#339EFF"/>
<stop offset="1" stop-color="#FF68A0"/>
</linearGradient>
</defs>
</svg>
