<svg width="150" height="150" viewBox="0 0 150 150" fill="none" xmlns="http://www.w3.org/2000/svg">
<mask id="path-1-inside-1_214_103" fill="white">
<path d="M150 75.0005C150 116.422 116.421 150 75 150C33.5786 150 0 116.422 0 75.0005C0 33.5791 33.5786 0.000488281 75 0.000488281C116.421 0.000488281 150 33.5791 150 75.0005ZM15 75.0005C15 108.138 41.8629 135 75 135C108.137 135 135 108.138 135 75.0005C135 41.8634 108.137 15.0005 75 15.0005C41.8629 15.0005 15 41.8634 15 75.0005Z"/>
</mask>
<path d="M150 75.0005C150 116.422 116.421 150 75 150C33.5786 150 0 116.422 0 75.0005C0 33.5791 33.5786 0.000488281 75 0.000488281C116.421 0.000488281 150 33.5791 150 75.0005ZM15 75.0005C15 108.138 41.8629 135 75 135C108.137 135 135 108.138 135 75.0005C135 41.8634 108.137 15.0005 75 15.0005C41.8629 15.0005 15 41.8634 15 75.0005Z" stroke="#EEEEEE" stroke-width="20" mask="url(#path-1-inside-1_214_103)"/>
<path d="M75 142.5C75 146.642 71.6337 150.039 67.5122 149.625C55.3242 148.402 43.5803 144.208 33.3322 137.36C20.9986 129.119 11.3856 117.406 5.70904 103.701C0.0324644 89.9968 -1.45278 74.9168 1.44111 60.3682C4.335 45.8197 11.4781 32.4559 21.967 21.967C32.4559 11.4781 45.8197 4.335 60.3682 1.44111C74.9168 -1.45278 89.9968 0.0324644 103.701 5.70904C117.406 11.3856 129.119 20.9986 137.36 33.3322C144.208 43.5803 148.402 55.3242 149.625 67.5122C150.039 71.6337 146.642 75 142.5 75C138.358 75 135.048 71.6292 134.532 67.5193C133.374 58.3032 130.087 49.4457 124.888 41.6658C118.295 31.7988 108.925 24.1085 97.961 19.5672C86.9974 15.026 74.9334 13.8378 63.2946 16.1529C51.6557 18.468 40.9648 24.1824 32.5736 32.5736C24.1824 40.9648 18.468 51.6557 16.1529 63.2946C13.8378 74.9334 15.026 86.9974 19.5672 97.961C24.1085 108.925 31.7988 118.295 41.6658 124.888C49.4457 130.087 58.3032 133.374 67.5193 134.532C71.6291 135.048 75 138.358 75 142.5Z" fill="url(#paint0_linear_214_103)"/>
<defs>
<linearGradient id="paint0_linear_214_103" x1="26.5" y1="150" x2="127.369" y2="162.344" gradientUnits="userSpaceOnUse">
<stop stop-color="#339EFF"/>
<stop offset="1" stop-color="#FF68A0"/>
</linearGradient>
</defs>
</svg>
