<svg width="150" height="150" viewBox="0 0 150 150" fill="none" xmlns="http://www.w3.org/2000/svg">
<mask id="path-1-inside-1_214_104" fill="white">
<path d="M150 75.0005C150 116.422 116.421 150 75 150C33.5786 150 0 116.422 0 75.0005C0 33.5791 33.5786 0.000488281 75 0.000488281C116.421 0.000488281 150 33.5791 150 75.0005ZM15 75.0005C15 108.138 41.8629 135 75 135C108.137 135 135 108.138 135 75.0005C135 41.8634 108.137 15.0005 75 15.0005C41.8629 15.0005 15 41.8634 15 75.0005Z"/>
</mask>
<path d="M150 75.0005C150 116.422 116.421 150 75 150C33.5786 150 0 116.422 0 75.0005C0 33.5791 33.5786 0.000488281 75 0.000488281C116.421 0.000488281 150 33.5791 150 75.0005ZM15 75.0005C15 108.138 41.8629 135 75 135C108.137 135 135 108.138 135 75.0005C135 41.8634 108.137 15.0005 75 15.0005C41.8629 15.0005 15 41.8634 15 75.0005Z" stroke="#EEEEEE" stroke-width="20" mask="url(#path-1-inside-1_214_104)"/>
<path d="M75 142.5C75 146.642 71.6338 150.039 67.5123 149.625C57.2915 148.6 47.3623 145.482 38.3534 140.437C27.1571 134.167 17.757 125.129 11.052 114.187C4.34705 103.246 0.561639 90.7671 0.0578245 77.9445C-0.445975 65.1219 2.3487 52.3845 8.17451 40.9507C14.0003 29.5169 22.6624 19.7691 33.3322 12.6398C44.002 5.51046 56.3227 1.23803 69.1156 0.23121C81.9085 -0.775611 94.7457 1.51682 106.399 6.88926C115.776 11.2121 124.135 17.4126 130.972 25.0787C133.729 28.1699 132.96 32.8898 129.609 35.3245C126.258 37.7592 121.599 36.9775 118.765 33.9561C113.491 28.3318 107.164 23.7592 100.12 20.5114C90.7966 16.2135 80.5268 14.3795 70.2924 15.185C60.0581 15.9904 50.2016 19.4084 41.6658 25.1118C33.1299 30.8153 26.2003 38.6135 21.5396 47.7606C16.879 56.9076 14.6432 67.0975 15.0463 77.3556C15.4493 87.6137 18.4776 97.5967 23.8416 106.35C29.2056 115.103 36.7257 122.334 45.6827 127.35C52.4511 131.14 59.8689 133.571 67.5194 134.532C71.6292 135.048 75 138.358 75 142.5Z" fill="url(#paint0_linear_214_104)"/>
<defs>
<linearGradient id="paint0_linear_214_104" x1="26.5" y1="150" x2="127.369" y2="162.344" gradientUnits="userSpaceOnUse">
<stop stop-color="#339EFF"/>
<stop offset="1" stop-color="#FF68A0"/>
</linearGradient>
</defs>
</svg>
