<svg width="150" height="150" viewBox="0 0 150 150" fill="none" xmlns="http://www.w3.org/2000/svg">
<mask id="path-1-inside-1_214_102" fill="white">
<path d="M150 75.0005C150 116.422 116.421 150 75 150C33.5786 150 0 116.422 0 75.0005C0 33.5791 33.5786 0.000488281 75 0.000488281C116.421 0.000488281 150 33.5791 150 75.0005ZM15 75.0005C15 108.138 41.8629 135 75 135C108.137 135 135 108.138 135 75.0005C135 41.8634 108.137 15.0005 75 15.0005C41.8629 15.0005 15 41.8634 15 75.0005Z"/>
</mask>
<path d="M150 75.0005C150 116.422 116.421 150 75 150C33.5786 150 0 116.422 0 75.0005C0 33.5791 33.5786 0.000488281 75 0.000488281C116.421 0.000488281 150 33.5791 150 75.0005ZM15 75.0005C15 108.138 41.8629 135 75 135C108.137 135 135 108.138 135 75.0005C135 41.8634 108.137 15.0005 75 15.0005C41.8629 15.0005 15 41.8634 15 75.0005Z" stroke="#EEEEEE" stroke-width="20" mask="url(#path-1-inside-1_214_102)"/>
<path d="M75 142.5C75 146.642 71.6336 150.039 67.5122 149.625C53.3497 148.204 39.8268 142.775 28.568 133.899C15.3382 123.469 6.00498 108.889 2.07227 92.5084C-1.86045 76.1275 -0.163657 58.8995 6.88926 43.6005C13.9422 28.3016 25.9404 15.8227 40.9507 8.17452C55.961 0.526407 73.109 -1.84547 89.6317 1.44111C106.154 4.72767 121.09 13.4813 132.03 26.2914C142.971 39.1015 149.281 55.222 149.942 72.0555C150.505 86.3811 146.949 100.513 139.774 112.806C137.686 116.383 132.96 117.11 129.609 114.675C126.258 112.241 125.561 107.568 127.559 103.94C132.803 94.4166 135.384 83.6013 134.954 72.6444C134.425 59.1776 129.377 46.2812 120.624 36.0331C111.872 25.785 99.9236 18.7821 86.7054 16.1529C73.4872 13.5236 59.7688 15.4211 47.7606 21.5396C35.7523 27.6581 26.1537 37.6413 20.5114 49.8804C14.8691 62.1196 13.5116 75.902 16.6578 89.0067C19.804 102.111 27.2706 113.775 37.8544 122.119C46.4657 128.908 56.7326 133.177 67.5194 134.532C71.6292 135.048 75 138.358 75 142.5Z" fill="url(#paint0_linear_214_102)"/>
<defs>
<linearGradient id="paint0_linear_214_102" x1="26.5" y1="150" x2="127.369" y2="162.344" gradientUnits="userSpaceOnUse">
<stop stop-color="#339EFF"/>
<stop offset="1" stop-color="#FF68A0"/>
</linearGradient>
</defs>
</svg>
