<svg width="38" height="40" viewBox="0 0 38 40" fill="none" xmlns="http://www.w3.org/2000/svg">
<path d="M2 38.822V2.08144H15.31C18.7747 2.08144 22.4339 2.54813 24.8545 5.02699C26.2931 6.50024 27.538 8.55375 27.538 11.2488C27.538 18.379 20.5544 19.7297 20.5544 19.9409C20.5544 20.1521 28.2921 21.2487 28.2921 29.3296C28.2921 33.3 25.5932 35.5342 23.3833 36.6982C21.5942 37.6406 19.534 37.7977 17.5119 37.7977H8.62423M8.62423 37.7977H7.17969M8.62423 37.7977V8.91055H20.78M32.3212 38.822C38.5357 32.0612 35.8041 23.4565 31.9798 20.2469C37.3065 12.8031 34.9163 5.15454 31.7749 1.19366" stroke="url(#paint0_linear_30_505)" stroke-width="2.89362"/>
<defs>
<linearGradient id="paint0_linear_30_505" x1="29.9933" y1="1.19366" x2="7.06768" y2="-1.34142" gradientUnits="userSpaceOnUse">
<stop stop-color="#339EFF"/>
<stop offset="1" stop-color="#FF68A0"/>
</linearGradient>
</defs>
</svg>
