<svg width="50" height="54" viewBox="0 0 50 54" fill="none" xmlns="http://www.w3.org/2000/svg">
<g opacity="0.5" filter="url(#filter0_f_16_521)">
<path d="M26.8516 7.13397C27.161 6.95534 27.5422 6.95534 27.8516 7.13398L45.2032 17.1519C45.5126 17.3306 45.7032 17.6607 45.7032 18.0179V38.0538C45.7032 38.4111 45.5126 38.7412 45.2032 38.9199L27.8516 48.9378C27.5422 49.1165 27.161 49.1165 26.8516 48.9378L9.5 38.9199C9.1906 38.7412 9 38.4111 9 38.0538V18.0179C9 17.6607 9.1906 17.3306 9.5 17.1519L26.8516 7.13397Z" stroke="#FF7BAC" stroke-width="4"/>
</g>
<path d="M19.8516 2.13397C20.161 1.95534 20.5422 1.95534 20.8516 2.13398L38.2032 12.1519C38.5126 12.3306 38.7032 12.6607 38.7032 13.0179V33.0538C38.7032 33.4111 38.5126 33.7412 38.2032 33.9199L20.8516 43.9378C20.5422 44.1165 20.161 44.1165 19.8516 43.9378L2.5 33.9199C2.1906 33.7412 2 33.4111 2 33.0538V13.0179C2 12.6607 2.1906 12.3306 2.5 12.1519L19.8516 2.13397Z" stroke="#339EFF" stroke-width="4"/>
<path d="M19.8516 2.13397C20.161 1.95534 20.5422 1.95534 20.8516 2.13398L38.2032 12.1519C38.5126 12.3306 38.7032 12.6607 38.7032 13.0179V33.0538C38.7032 33.4111 38.5126 33.7412 38.2032 33.9199L20.8516 43.9378C20.5422 44.1165 20.161 44.1165 19.8516 43.9378L2.5 33.9199C2.1906 33.7412 2 33.4111 2 33.0538V13.0179C2 12.6607 2.1906 12.3306 2.5 12.1519L19.8516 2.13397Z" stroke="#339EFF" stroke-width="4"/>
<defs>
<filter id="filter0_f_16_521" x="5" y="3" width="44.7032" height="50.0718" filterUnits="userSpaceOnUse" color-interpolation-filters="sRGB">
<feFlood flood-opacity="0" result="BackgroundImageFix"/>
<feBlend mode="normal" in="SourceGraphic" in2="BackgroundImageFix" result="shape"/>
<feGaussianBlur stdDeviation="1" result="effect1_foregroundBlur_16_521"/>
</filter>
</defs>
</svg>
