<svg width="152" height="24" viewBox="0 0 152 24" fill="none" xmlns="http://www.w3.org/2000/svg">
<path d="M3.35841 23.6358C2.26227 23.6358 1.42262 23.371 0.839641 22.8414C0.279933 22.2897 0 21.5062 0 20.491V3.44275C0 2.42758 0.279933 1.65517 0.839641 1.12552C1.42262 0.573793 2.26227 0.297928 3.35841 0.297928H11.8943C13.6669 0.297928 15.1712 0.551728 16.4073 1.05931C17.6667 1.54483 18.6228 2.23999 19.2758 3.14482C19.9289 4.04965 20.2554 5.10897 20.2554 6.32275C20.2554 7.69104 19.8357 8.86069 18.996 9.83171C18.1797 10.8027 17.0602 11.4648 15.6376 11.8179V11.2882C17.3167 11.5752 18.6111 12.2151 19.5208 13.2082C20.4537 14.2014 20.9201 15.4704 20.9201 17.0151C20.9201 19.0675 20.1387 20.6896 18.5761 21.8814C17.037 23.0511 14.9262 23.6358 12.2442 23.6358H3.35841ZM6.1571 19.1668H11.3696C12.559 19.1668 13.4219 18.9573 13.9583 18.5379C14.5181 18.0966 14.798 17.4454 14.798 16.5849C14.798 15.7242 14.5181 15.0841 13.9583 14.6649C13.4219 14.2455 12.559 14.0358 11.3696 14.0358H6.1571V19.1668ZM6.1571 9.56689H10.7399C11.906 9.56689 12.7572 9.36827 13.2937 8.97103C13.8534 8.57378 14.1333 7.9669 14.1333 7.15035C14.1333 6.33379 13.8534 5.73793 13.2937 5.36275C12.7572 4.96551 11.906 4.76689 10.7399 4.76689H6.1571V9.56689Z" fill="url(#paint0_linear_53_236)"/>
<path d="M33.5193 24C31.4203 24 29.6012 23.658 28.0619 22.9738C26.546 22.2676 25.3799 21.2745 24.5635 19.9945C23.7473 18.7144 23.3391 17.2027 23.3391 15.4593C23.3391 13.782 23.724 12.3145 24.4935 11.0565C25.2866 9.77655 26.3593 8.78345 27.7121 8.07725C29.088 7.34897 30.6506 6.98483 32.3999 6.98483C33.6825 6.98483 34.8487 7.18346 35.8981 7.58069C36.9477 7.95587 37.8456 8.51862 38.5918 9.26896C39.3382 9.99724 39.8979 10.8799 40.2711 11.9172C40.6676 12.9544 40.8658 14.113 40.8658 15.3931C40.8658 15.8344 40.7376 16.1655 40.4811 16.3861C40.2244 16.5849 39.8164 16.6842 39.2565 16.6842H28.5516V13.9035H36.318L35.7583 14.3338C35.7583 13.5172 35.6416 12.8551 35.4084 12.3475C35.1751 11.8399 34.8254 11.4538 34.3589 11.1889C33.9158 10.9242 33.3561 10.7917 32.6797 10.7917C31.9567 10.7917 31.327 10.9572 30.7906 11.2882C30.2774 11.5972 29.881 12.0607 29.6012 12.6786C29.3213 13.2966 29.1813 14.0689 29.1813 14.9958V15.2938C29.1813 16.8607 29.5429 17.9862 30.2659 18.6703C31.0121 19.3324 32.1549 19.6635 33.6943 19.6635C34.2073 19.6635 34.7904 19.6083 35.4434 19.4979C36.1198 19.3654 36.761 19.1889 37.3674 18.9682C37.9739 18.7476 38.4986 18.7144 38.9417 18.8689C39.3849 19.0014 39.723 19.2441 39.9562 19.5972C40.2128 19.9282 40.3527 20.3145 40.3761 20.7558C40.3994 21.1752 40.2944 21.5944 40.0612 22.0138C39.8279 22.411 39.4432 22.72 38.9068 22.9407C38.0905 23.2938 37.2159 23.5585 36.283 23.7351C35.3734 23.9118 34.4522 24 33.5193 24Z" fill="url(#paint1_linear_53_236)"/>
<path d="M50.0904 24C47.8516 24 46.1956 23.4372 45.1229 22.3117C44.0733 21.1641 43.5486 19.4427 43.5486 17.1475V2.97931C43.5486 2.00827 43.8168 1.26897 44.3532 0.761385C44.8897 0.2538 45.6476 0 46.6271 0C47.6299 0 48.3996 0.2538 48.936 0.761385C49.4957 1.26897 49.7757 2.00827 49.7757 2.97931V16.9489C49.7757 17.7655 49.9389 18.3613 50.2654 18.7365C50.6151 19.1116 51.0583 19.2993 51.5948 19.2993C51.758 19.2993 51.9212 19.2883 52.0845 19.2661C52.2712 19.222 52.4694 19.1889 52.6792 19.1668C53.0758 19.1668 53.3673 19.3104 53.5538 19.5972C53.7638 19.8841 53.8687 20.469 53.8687 21.3517C53.8687 22.1241 53.7055 22.7089 53.3789 23.1061C53.0524 23.4814 52.5509 23.7241 51.8747 23.8345C51.688 23.8566 51.4198 23.8896 51.07 23.9338C50.7201 23.9779 50.3936 24 50.0904 24Z" fill="url(#paint2_linear_53_236)"/>
<path d="M64.9155 24C62.8165 24 60.9974 23.658 59.4581 22.9738C57.9422 22.2676 56.7761 21.2745 55.9597 19.9945C55.1435 18.7144 54.7354 17.2027 54.7354 15.4593C54.7354 13.782 55.1203 12.3145 55.8899 11.0565C56.6828 9.77655 57.7555 8.78345 59.1083 8.07725C60.4843 7.34897 62.0469 6.98483 63.7961 6.98483C65.0788 6.98483 66.2449 7.18346 67.2945 7.58069C68.3439 7.95587 69.2418 8.51862 69.9882 9.26896C70.7345 9.99724 71.2942 10.8799 71.6674 11.9172C72.0638 12.9544 72.262 14.113 72.262 15.3931C72.262 15.8344 72.1338 16.1655 71.8773 16.3861C71.6208 16.5849 71.2126 16.6842 70.6529 16.6842H59.948V13.9035H67.7142L67.1545 14.3338C67.1545 13.5172 67.0378 12.8551 66.8046 12.3475C66.5714 11.8399 66.2216 11.4538 65.7552 11.1889C65.312 10.9242 64.7523 10.7917 64.0759 10.7917C63.353 10.7917 62.7233 10.9572 62.1868 11.2882C61.6738 11.5972 61.2774 12.0607 60.9974 12.6786C60.7175 13.2966 60.5777 14.0689 60.5777 14.9958V15.2938C60.5777 16.8607 60.9392 17.9862 61.6621 18.6703C62.4085 19.3324 63.5512 19.6635 65.0905 19.6635C65.6037 19.6635 66.1866 19.6083 66.8396 19.4979C67.516 19.3654 68.1574 19.1889 68.7637 18.9682C69.3701 18.7476 69.8948 18.7144 70.338 18.8689C70.7812 19.0014 71.1194 19.2441 71.3526 19.5972C71.6091 19.9282 71.7491 20.3145 71.7723 20.7558C71.7956 21.1752 71.6906 21.5944 71.4574 22.0138C71.2242 22.411 70.8394 22.72 70.303 22.9407C69.4868 23.2938 68.6121 23.5585 67.6792 23.7351C66.7696 23.9118 65.8484 24 64.9155 24Z" fill="url(#paint3_linear_53_236)"/>
<path d="M83.725 24C81.7902 24 80.0992 23.658 78.6536 22.9738C77.2302 22.2897 76.1218 21.3076 75.3297 20.0275C74.5366 18.7255 74.1401 17.2027 74.1401 15.4593C74.1401 14.1351 74.3618 12.9544 74.8048 11.9172C75.248 10.8579 75.8894 9.96414 76.7282 9.23586C77.5912 8.50758 78.6061 7.95587 79.773 7.58069C80.9621 7.18346 82.2794 6.98483 83.725 6.98483C84.4027 6.98483 85.1136 7.05104 85.8593 7.18346C86.6067 7.2938 87.3762 7.51449 88.1678 7.84551C88.7283 8.04414 89.1131 8.35311 89.3237 8.77242C89.5564 9.16965 89.6498 9.6 89.6023 10.0635C89.5802 10.5268 89.4392 10.9462 89.1827 11.3214C88.95 11.6965 88.6112 11.9503 88.1678 12.0828C87.7482 12.2151 87.2701 12.16 86.7349 11.9172C86.3612 11.7406 85.9638 11.6193 85.5442 11.5531C85.1484 11.4648 84.7637 11.4207 84.39 11.4207C83.7614 11.4207 83.2009 11.5089 82.7117 11.6854C82.2446 11.862 81.8487 12.1269 81.521 12.48C81.1948 12.811 80.9383 13.2303 80.7515 13.7379C80.5884 14.2455 80.5077 14.8192 80.5077 15.4593C80.5077 16.7392 80.8449 17.7435 81.521 18.4717C82.1987 19.2 83.155 19.5642 84.39 19.5642C84.7637 19.5642 85.1484 19.531 85.5442 19.4649C85.9417 19.3765 86.3375 19.2441 86.7349 19.0675C87.2701 18.8248 87.7482 18.7807 88.1678 18.9351C88.589 19.0675 88.9262 19.3213 89.1827 19.6965C89.4392 20.0718 89.5802 20.491 89.6023 20.9545C89.6261 21.3958 89.5216 21.8262 89.2872 22.2454C89.0545 22.6428 88.6587 22.9407 88.0982 23.1393C87.3287 23.4703 86.5702 23.691 85.8245 23.8014C85.1009 23.9338 84.4027 24 83.725 24Z" fill="url(#paint4_linear_53_236)"/>
<path d="M100.26 24C98.3471 24 96.6798 23.658 95.2564 22.9738C93.8346 22.2897 92.7262 21.3076 91.933 20.0275C91.1397 18.7476 90.7439 17.2359 90.7439 15.4924C90.7439 14.1682 90.9656 12.9876 91.4089 11.9503C91.8522 10.891 92.4935 9.99724 93.3326 9.26896C94.1718 8.51862 95.1756 7.95587 96.341 7.58069C97.5079 7.18346 98.8126 6.98483 100.26 6.98483C102.171 6.98483 103.84 7.3269 105.261 8.01103C106.685 8.69517 107.781 9.67723 108.55 10.9572C109.343 12.2151 109.739 13.7269 109.739 15.4924C109.739 16.7944 109.517 17.9751 109.076 19.0345C108.632 20.0938 107.991 20.9986 107.15 21.7489C106.335 22.4772 105.331 23.04 104.142 23.4372C102.977 23.8123 101.682 24 100.26 24ZM100.26 19.6635C100.888 19.6635 101.449 19.5199 101.938 19.2331C102.429 18.9241 102.801 18.4717 103.057 17.8758C103.338 17.2579 103.477 16.4634 103.477 15.4924C103.477 14.0137 103.175 12.9544 102.568 12.3145C101.962 11.6524 101.192 11.3214 100.26 11.3214C99.6296 11.3214 99.0691 11.4648 98.5798 11.7517C98.0906 12.0385 97.7058 12.4911 97.4256 13.1089C97.1453 13.7049 97.006 14.4993 97.006 15.4924C97.006 16.9489 97.3084 18.0082 97.9148 18.6703C98.5212 19.3324 99.3034 19.6635 100.26 19.6635Z" fill="url(#paint5_linear_53_236)"/>
<path d="M115.672 23.9338C114.692 23.9338 113.934 23.68 113.398 23.1724C112.862 22.6648 112.593 21.9255 112.593 20.9545V9.99724C112.593 9.04827 112.849 8.32 113.364 7.81242C113.899 7.30483 114.657 7.05103 115.637 7.05103C116.616 7.05103 117.363 7.30483 117.876 7.81242C118.389 8.32 118.646 9.04827 118.646 9.99724V11.5531L118.261 10.1959C118.82 9.15862 119.613 8.36413 120.639 7.81242C121.689 7.26069 122.878 6.98483 124.208 6.98483C125.584 6.98483 126.714 7.23862 127.601 7.74621C128.488 8.23173 129.153 9.00414 129.594 10.0635C130.038 11.1007 130.259 12.4138 130.259 14.0028V20.9545C130.259 21.9255 129.992 22.6648 129.455 23.1724C128.918 23.68 128.149 23.9338 127.147 23.9338C126.143 23.9338 125.373 23.68 124.838 23.1724C124.301 22.6648 124.032 21.9255 124.032 20.9545V14.2345C124.032 13.2414 123.847 12.5352 123.473 12.1158C123.123 11.6965 122.599 11.4868 121.899 11.4868C120.965 11.4868 120.219 11.7738 119.661 12.3475C119.1 12.8992 118.82 13.6497 118.82 14.5986V20.9545C118.82 22.9407 117.77 23.9338 115.672 23.9338Z" fill="url(#paint6_linear_53_236)"/>
<path d="M142.519 24C140.606 24 138.939 23.658 137.517 22.9738C136.094 22.2897 134.987 21.3076 134.194 20.0275C133.401 18.7476 133.005 17.2359 133.005 15.4924C133.005 14.1682 133.225 12.9876 133.668 11.9503C134.112 10.891 134.753 9.99724 135.594 9.26896C136.433 8.51862 137.435 7.95587 138.602 7.58069C139.767 7.18346 141.074 6.98483 142.519 6.98483C144.432 6.98483 146.099 7.3269 147.522 8.01103C148.944 8.69517 150.042 9.67723 150.811 10.9572C151.604 12.2151 152 13.7269 152 15.4924C152 16.7944 151.778 17.9751 151.335 19.0345C150.892 20.0938 150.251 20.9986 149.411 21.7489C148.594 22.4772 147.592 23.04 146.403 23.4372C145.236 23.8123 143.943 24 142.519 24ZM142.519 19.6635C143.149 19.6635 143.71 19.5199 144.199 19.2331C144.688 18.9241 145.062 18.4717 145.318 17.8758C145.599 17.2579 145.738 16.4634 145.738 15.4924C145.738 14.0137 145.436 12.9544 144.829 12.3145C144.223 11.6524 143.453 11.3214 142.519 11.3214C141.891 11.3214 141.33 11.4648 140.841 11.7517C140.35 12.0385 139.965 12.4911 139.687 13.1089C139.406 13.7049 139.267 14.4993 139.267 15.4924C139.267 16.9489 139.569 18.0082 140.176 18.6703C140.782 19.3324 141.563 19.6635 142.519 19.6635Z" fill="url(#paint7_linear_53_236)"/>
<defs>
<linearGradient id="paint0_linear_53_236" x1="125.147" y1="-1.2115e-06" x2="60.3358" y2="-50.2326" gradientUnits="userSpaceOnUse">
<stop stop-color="#339EFF"/>
<stop offset="1" stop-color="#FF68A0"/>
</linearGradient>
<linearGradient id="paint1_linear_53_236" x1="125.147" y1="4.44296e-06" x2="60.3357" y2="-50.2326" gradientUnits="userSpaceOnUse">
<stop stop-color="#339EFF"/>
<stop offset="1" stop-color="#FF68A0"/>
</linearGradient>
<linearGradient id="paint2_linear_53_236" x1="125.147" y1="9.91032e-07" x2="60.3357" y2="-50.2326" gradientUnits="userSpaceOnUse">
<stop stop-color="#339EFF"/>
<stop offset="1" stop-color="#FF68A0"/>
</linearGradient>
<linearGradient id="paint3_linear_53_236" x1="125.147" y1="2.22612e-06" x2="60.3358" y2="-50.2326" gradientUnits="userSpaceOnUse">
<stop stop-color="#339EFF"/>
<stop offset="1" stop-color="#FF68A0"/>
</linearGradient>
<linearGradient id="paint4_linear_53_236" x1="125.147" y1="1.40027e-06" x2="60.3357" y2="-50.2326" gradientUnits="userSpaceOnUse">
<stop stop-color="#339EFF"/>
<stop offset="1" stop-color="#FF68A0"/>
</linearGradient>
<linearGradient id="paint5_linear_53_236" x1="125.147" y1="1.86457e-06" x2="60.3357" y2="-50.2326" gradientUnits="userSpaceOnUse">
<stop stop-color="#339EFF"/>
<stop offset="1" stop-color="#FF68A0"/>
</linearGradient>
<linearGradient id="paint6_linear_53_236" x1="125.147" y1="1.63356e-06" x2="60.3359" y2="-50.2326" gradientUnits="userSpaceOnUse">
<stop stop-color="#339EFF"/>
<stop offset="1" stop-color="#FF68A0"/>
</linearGradient>
<linearGradient id="paint7_linear_53_236" x1="125.147" y1="2.64474e-06" x2="60.336" y2="-50.2325" gradientUnits="userSpaceOnUse">
<stop stop-color="#339EFF"/>
<stop offset="1" stop-color="#FF68A0"/>
</linearGradient>
</defs>
</svg>
