<svg width="110" height="96" viewBox="0 0 110 96" fill="none" xmlns="http://www.w3.org/2000/svg">
<path fill-rule="evenodd" clip-rule="evenodd" d="M52.0632 0.0765268C64.4703 -1.04982 73.5064 10.4999 82.9551 18.7421C93.6471 28.0689 107.281 35.9625 109.42 50.1095C111.774 65.682 107.019 84.0387 94.1584 92.8528C82.0289 101.166 66.658 90.5041 52.0632 89.419C39.4738 88.483 25.8101 94.7112 15.7119 87.0204C4.78273 78.6967 -1.83242 63.7869 0.44893 50.1095C2.56081 37.4482 17.0941 32.7581 26.2418 23.8907C34.9849 15.4155 40.0236 1.16951 52.0632 0.0765268Z" fill="url(#paint0_linear_16_448)"/>
<path d="M65.3953 52.6646L66.5988 45.5342H59.5116V40.5683C59.5116 38.5311 60.314 37.0031 63.5233 37.0031H67V30.5093C65.1279 30.2547 62.9884 30 61.1163 30C54.9651 30 50.686 33.5652 50.686 39.9317V45.5342H44V52.6646H50.686V70.618C52.157 70.8727 53.6279 71 55.0988 71C56.5698 71 58.0407 70.8727 59.5116 70.618V52.6646H65.3953Z" fill="white"/>
<defs>
<linearGradient id="paint0_linear_16_448" x1="55.0027" y1="93.127" x2="55.0027" y2="-0.0177715" gradientUnits="userSpaceOnUse">
<stop stop-color="#0062E0"/>
<stop offset="1" stop-color="#19AFFF"/>
</linearGradient>
</defs>
</svg>
