<svg width="110" height="96" viewBox="0 0 110 96" fill="none" xmlns="http://www.w3.org/2000/svg">
<path fill-rule="evenodd" clip-rule="evenodd" d="M57.9368 0.0765268C45.5297 -1.04982 36.4936 10.4999 27.0449 18.7421C16.3529 28.0689 2.71884 35.9625 0.580215 50.1095C-1.77388 65.682 2.98092 84.0387 15.8416 92.8528C27.9711 101.166 43.342 90.5041 57.9368 89.419C70.5262 88.483 84.1899 94.7112 94.2881 87.0204C105.217 78.6967 111.832 63.7869 109.551 50.1095C107.439 37.4482 92.9059 32.7581 83.7582 23.8907C75.0151 15.4155 69.9764 1.16951 57.9368 0.0765268Z" fill="#FF8FC0"/>
<path d="M64.9399 44.966C67.9479 47.1343 71.633 48.41 75.613 48.41V40.6875C74.8597 40.6877 74.1085 40.6084 73.3716 40.451V46.5297C69.3919 46.5297 65.7073 45.2541 62.6986 43.086V58.8455C62.6986 66.7294 56.3604 73.1199 48.5425 73.1199C45.6254 73.1199 42.914 72.2306 40.6617 70.7055C43.2324 73.3559 46.8173 75 50.7833 75C58.6018 75 64.9402 68.6095 64.9402 60.7254V44.966H64.9399ZM67.7051 37.175C66.1677 35.4815 65.1583 33.2929 64.9399 30.8733V29.8801H62.8158C63.3505 32.9553 65.1744 35.5825 67.7051 37.175ZM45.6066 64.6558C44.7477 63.5204 44.2834 62.1311 44.2855 60.7028C44.2855 57.0971 47.1845 54.1735 50.7612 54.1735C51.4277 54.1732 52.0902 54.2764 52.7255 54.4795V46.5843C51.9831 46.4818 51.2339 46.4381 50.485 46.4541V52.5993C49.8494 52.3961 49.1865 52.2929 48.5198 52.2935C44.9432 52.2935 42.0443 55.2168 42.0443 58.823C42.0443 61.3728 43.4933 63.5804 45.6066 64.6558Z" fill="#FF004F"/>
<path d="M62.6986 43.0859C65.7075 45.2539 69.3918 46.5295 73.3716 46.5295V40.4508C71.1501 39.9736 69.1835 38.8031 67.705 37.175C65.1741 35.5824 63.3505 32.9551 62.8159 29.8801H57.2367V60.7251C57.2239 64.321 54.3299 67.2325 50.7609 67.2325C48.658 67.2325 46.7895 66.2218 45.6063 64.6557C43.4933 63.5804 42.0442 61.3727 42.0442 58.8231C42.0442 55.2173 44.9431 52.2937 48.5196 52.2937C49.2049 52.2937 49.8653 52.4012 50.4849 52.5995V46.4543C42.8042 46.6143 36.6272 52.9425 36.6272 60.7252C36.6272 64.6103 38.1654 68.1323 40.6619 70.7058C42.9142 72.2306 45.6254 73.1202 48.5427 73.1202C56.3607 73.1202 62.6988 66.7292 62.6988 58.8455V43.086L62.6986 43.0859Z" fill="black"/>
<path d="M73.3716 40.4505V38.8073C71.3683 38.8103 69.4046 38.2446 67.7049 37.1749C69.2094 38.8357 71.1905 39.981 73.3716 40.4509V40.4505ZM62.8157 29.8798C62.7647 29.586 62.7256 29.2902 62.6984 28.9932V28H54.9949V58.8453C54.9826 62.4408 52.0886 65.3524 48.5194 65.3524C47.5076 65.3539 46.5096 65.1153 45.6061 64.6559C46.7893 66.2217 48.6578 67.2323 50.7607 67.2323C54.3296 67.2323 57.2239 64.321 57.2365 60.7251V29.88H62.8157V29.8798ZM50.4852 46.454V44.7043C49.8415 44.6155 49.1925 44.5711 48.5428 44.5714C40.7239 44.5714 34.3859 50.9622 34.3859 58.8453C34.3859 63.7876 36.8768 68.1433 40.6621 70.7054C38.1655 68.1321 36.6273 64.6099 36.6273 60.7249C36.6273 52.9423 42.8042 46.6141 50.4852 46.454Z" fill="#00F2EA"/>
</svg>
