<svg width="110" height="96" viewBox="0 0 110 96" fill="none" xmlns="http://www.w3.org/2000/svg">
<path fill-rule="evenodd" clip-rule="evenodd" d="M52.0632 0.0765268C64.4703 -1.04982 73.5064 10.4999 82.9551 18.7421C93.6471 28.0689 107.281 35.9625 109.42 50.1095C111.774 65.682 107.019 84.0387 94.1584 92.8528C82.0289 101.166 66.658 90.5041 52.0632 89.419C39.4738 88.483 25.8101 94.7112 15.7119 87.0204C4.78273 78.6967 -1.83242 63.7869 0.44893 50.1095C2.56081 37.4482 17.0941 32.7581 26.2418 23.8907C34.9849 15.4155 40.0236 1.16951 52.0632 0.0765268Z" fill="#F0F0F0"/>
<path d="M75 53.3678C75 51.6889 74.8638 50.4637 74.569 49.1931H55.3969V56.7711H66.6504C66.4236 58.6544 65.1984 61.4905 62.4757 63.3962L62.4376 63.6499L68.4994 68.346L68.9194 68.3879C72.7764 64.8257 75 59.5846 75 53.3678Z" fill="#4285F4"/>
<path d="M55.3968 73.334C60.9101 73.334 65.5386 71.5188 68.9194 68.3878L62.4757 63.3962C60.7514 64.5987 58.4371 65.4382 55.3968 65.4382C49.9969 65.4382 45.4138 61.8761 43.78 56.9526L43.5406 56.973L37.2373 61.8511L37.1549 62.0802C40.5128 68.7507 47.4103 73.334 55.3968 73.334Z" fill="#34A853"/>
<path d="M43.78 56.9528C43.3489 55.6822 43.0994 54.3208 43.0994 52.9142C43.0994 51.5074 43.3489 50.1461 43.7573 48.8755L43.7459 48.6049L37.3637 43.6484L37.1549 43.7478C35.7709 46.5158 34.9768 49.6243 34.9768 52.9142C34.9768 56.204 35.7709 59.3123 37.1549 62.0804L43.78 56.9528Z" fill="#FBBC05"/>
<path d="M55.3968 40.3898C59.2312 40.3898 61.8177 42.0461 63.2925 43.4302L69.0555 37.8033C65.5161 34.5135 60.9101 32.4941 55.3968 32.4941C47.4103 32.4941 40.5128 37.0773 37.1549 43.7477L43.7573 48.8755C45.4138 43.952 49.9969 40.3898 55.3968 40.3898Z" fill="#EB4335"/>
</svg>
