<svg width="110" height="96" viewBox="0 0 110 96" fill="none" xmlns="http://www.w3.org/2000/svg">
<path fill-rule="evenodd" clip-rule="evenodd" d="M57.9368 0.0765268C45.5297 -1.04982 36.4936 10.4999 27.0449 18.7421C16.3529 28.0689 2.71884 35.9625 0.580215 50.1095C-1.77388 65.682 2.98092 84.0387 15.8416 92.8528C27.9711 101.166 43.342 90.5041 57.9368 89.419C70.5262 88.483 84.1899 94.7112 94.2881 87.0204C105.217 78.6967 111.832 63.7869 109.551 50.1095C107.439 37.4482 92.9059 32.7581 83.7582 23.8907C75.0151 15.4155 69.9764 1.16951 57.9368 0.0765268Z" fill="#333333"/>
<path d="M56.9234 36.7667L64.7916 41.2438C65.0744 41.401 65.0847 41.837 64.7916 41.9942L55.4423 47.3181C55.1595 47.4803 54.8252 47.4702 54.5629 47.3181L45.2137 41.9942C44.9257 41.8421 44.9205 41.3959 45.2137 41.2438L53.0767 36.7667V28L33 39.4286V62.2857L40.6985 57.9051V48.9508C40.6933 48.6312 41.0739 48.4032 41.3567 48.5755L50.706 53.8994C50.9888 54.0617 51.1482 54.3508 51.1482 54.6499V65.2925C51.1534 65.612 50.7728 65.84 50.49 65.6677L42.6218 61.1906L34.9233 65.5714L55.0001 77L75.0767 65.5714L67.3782 61.1906L59.5102 65.6677C59.2324 65.8351 58.8415 65.6171 58.8518 65.2925V54.6499C58.8518 54.3304 59.0319 54.0466 59.294 53.8994L68.6434 48.5755C68.921 48.4082 69.3118 48.6212 69.3015 48.9508V57.9051L77 62.2857V39.4286L56.9234 28V36.7667Z" fill="white"/>
</svg>
